<mxfile host="app.diagrams.net" modified="2023-05-04T07:17:56.382Z" agent="Mozilla/5.0 (Windows NT 10.0; Win64; x64) AppleWebKit/537.36 (KHTML, like Gecko) Chrome/112.0.0.0 Safari/537.36" etag="KF0THFT7C4WoKbTl5mHH" version="21.2.7" type="github">
  <diagram name="Page-1" id="UTS4cF8dmelflX9qp4N6">
    <mxGraphModel dx="1178" dy="1753" grid="1" gridSize="10" guides="1" tooltips="1" connect="1" arrows="1" fold="1" page="1" pageScale="1" pageWidth="850" pageHeight="1100" math="0" shadow="0">
      <root>
        <mxCell id="0" />
        <mxCell id="1" parent="0" />
        <mxCell id="mucqxG4NULC66LCUimEi-39" value="" style="endArrow=none;dashed=1;html=1;rounded=0;strokeWidth=1;" edge="1" parent="1">
          <mxGeometry width="50" height="50" relative="1" as="geometry">
            <mxPoint x="240" y="580" as="sourcePoint" />
            <mxPoint x="240" y="70" as="targetPoint" />
          </mxGeometry>
        </mxCell>
        <mxCell id="mucqxG4NULC66LCUimEi-19" value="" style="shape=hexagon;perimeter=hexagonPerimeter2;whiteSpace=wrap;html=1;fixedSize=1;" vertex="1" parent="1">
          <mxGeometry x="20" y="590" width="670" height="480" as="geometry" />
        </mxCell>
        <mxCell id="mucqxG4NULC66LCUimEi-18" value="" style="shape=hexagon;perimeter=hexagonPerimeter2;whiteSpace=wrap;html=1;fixedSize=1;" vertex="1" parent="1">
          <mxGeometry x="170" y="660" width="390" height="310" as="geometry" />
        </mxCell>
        <mxCell id="mucqxG4NULC66LCUimEi-16" value="" style="edgeStyle=orthogonalEdgeStyle;rounded=0;orthogonalLoop=1;jettySize=auto;html=1;fillColor=#ffe6cc;strokeColor=#d79b00;" edge="1" parent="1" source="mucqxG4NULC66LCUimEi-1">
          <mxGeometry relative="1" as="geometry">
            <mxPoint x="65" y="250" as="targetPoint" />
          </mxGeometry>
        </mxCell>
        <mxCell id="mucqxG4NULC66LCUimEi-1" value="StudentDTO&lt;br&gt;" style="whiteSpace=wrap;html=1;aspect=fixed;fillColor=#ffe6cc;strokeColor=#d79b00;" vertex="1" parent="1">
          <mxGeometry x="25" y="330" width="80" height="82" as="geometry" />
        </mxCell>
        <mxCell id="mucqxG4NULC66LCUimEi-2" value="Student" style="whiteSpace=wrap;html=1;aspect=fixed;fillColor=#dae8fc;strokeColor=#6c8ebf;" vertex="1" parent="1">
          <mxGeometry x="550" y="270" width="80" height="82" as="geometry" />
        </mxCell>
        <mxCell id="mucqxG4NULC66LCUimEi-3" value="StudentEntity" style="whiteSpace=wrap;html=1;aspect=fixed;fillColor=#e1d5e7;strokeColor=#9673a6;" vertex="1" parent="1">
          <mxGeometry x="750" y="270" width="80" height="82" as="geometry" />
        </mxCell>
        <mxCell id="mucqxG4NULC66LCUimEi-4" value="" style="endArrow=none;dashed=1;html=1;rounded=0;strokeWidth=3;" edge="1" parent="1">
          <mxGeometry width="50" height="50" relative="1" as="geometry">
            <mxPoint x="470" y="580" as="sourcePoint" />
            <mxPoint x="470" as="targetPoint" />
          </mxGeometry>
        </mxCell>
        <mxCell id="mucqxG4NULC66LCUimEi-5" value="" style="endArrow=none;dashed=1;html=1;rounded=0;strokeWidth=3;" edge="1" parent="1">
          <mxGeometry width="50" height="50" relative="1" as="geometry">
            <mxPoint x="680" y="580" as="sourcePoint" />
            <mxPoint x="680" as="targetPoint" />
          </mxGeometry>
        </mxCell>
        <mxCell id="mucqxG4NULC66LCUimEi-9" value="&lt;font size=&quot;1&quot; style=&quot;&quot;&gt;&lt;b style=&quot;font-size: 15px;&quot;&gt;database&lt;/b&gt;&lt;/font&gt;" style="text;html=1;align=center;verticalAlign=middle;resizable=0;points=[];autosize=1;strokeColor=#9673a6;fillColor=#e1d5e7;" vertex="1" parent="1">
          <mxGeometry x="745" y="460" width="90" height="30" as="geometry" />
        </mxCell>
        <mxCell id="mucqxG4NULC66LCUimEi-11" style="edgeStyle=orthogonalEdgeStyle;rounded=0;orthogonalLoop=1;jettySize=auto;html=1;entryX=0.5;entryY=0;entryDx=0;entryDy=0;fillColor=#ffe6cc;strokeColor=#d79b00;" edge="1" parent="1" source="mucqxG4NULC66LCUimEi-10" target="mucqxG4NULC66LCUimEi-1">
          <mxGeometry relative="1" as="geometry">
            <Array as="points">
              <mxPoint x="65" y="280" />
              <mxPoint x="65" y="280" />
            </Array>
          </mxGeometry>
        </mxCell>
        <mxCell id="mucqxG4NULC66LCUimEi-10" value="StudentController" style="whiteSpace=wrap;html=1;aspect=fixed;fillColor=#ffe6cc;strokeColor=#d79b00;" vertex="1" parent="1">
          <mxGeometry x="10" y="150" width="110" height="110" as="geometry" />
        </mxCell>
        <mxCell id="mucqxG4NULC66LCUimEi-12" value="use" style="text;html=1;align=center;verticalAlign=middle;resizable=0;points=[];autosize=1;" vertex="1" parent="1">
          <mxGeometry x="65" y="278" width="40" height="30" as="geometry" />
        </mxCell>
        <mxCell id="mucqxG4NULC66LCUimEi-14" value="&lt;b&gt;&lt;font style=&quot;font-size: 14px;&quot;&gt;Domain layer&lt;/font&gt;&lt;/b&gt;" style="text;html=1;align=center;verticalAlign=middle;resizable=0;points=[];autosize=1;strokeColor=#6c8ebf;fillColor=#dae8fc;" vertex="1" parent="1">
          <mxGeometry x="540" y="460" width="110" height="30" as="geometry" />
        </mxCell>
        <mxCell id="mucqxG4NULC66LCUimEi-17" value="" style="shape=hexagon;perimeter=hexagonPerimeter2;whiteSpace=wrap;html=1;fixedSize=1;" vertex="1" parent="1">
          <mxGeometry x="257.5" y="760" width="215" height="150" as="geometry" />
        </mxCell>
        <mxCell id="mucqxG4NULC66LCUimEi-25" style="edgeStyle=orthogonalEdgeStyle;rounded=0;orthogonalLoop=1;jettySize=auto;html=1;flowAnimation=1;" edge="1" parent="1" source="mucqxG4NULC66LCUimEi-21" target="mucqxG4NULC66LCUimEi-24">
          <mxGeometry relative="1" as="geometry" />
        </mxCell>
        <mxCell id="mucqxG4NULC66LCUimEi-21" value="&lt;font style=&quot;font-size: 16px;&quot;&gt;&lt;b&gt;Infrastructure layer&lt;br&gt;&lt;/b&gt;&lt;/font&gt;" style="text;html=1;align=center;verticalAlign=middle;resizable=0;points=[];autosize=1;strokeColor=#d79b00;fillColor=#ffe6cc;strokeWidth=2;" vertex="1" parent="1">
          <mxGeometry x="290" y="1030" width="170" height="30" as="geometry" />
        </mxCell>
        <mxCell id="mucqxG4NULC66LCUimEi-22" value="&lt;b&gt;&lt;font style=&quot;font-size: 14px;&quot;&gt;Domain layer&lt;/font&gt;&lt;/b&gt;" style="text;html=1;align=center;verticalAlign=middle;resizable=0;points=[];autosize=1;strokeColor=#6c8ebf;fillColor=#dae8fc;" vertex="1" parent="1">
          <mxGeometry x="327.5" y="860" width="110" height="30" as="geometry" />
        </mxCell>
        <mxCell id="mucqxG4NULC66LCUimEi-26" style="edgeStyle=orthogonalEdgeStyle;rounded=0;orthogonalLoop=1;jettySize=auto;html=1;dashed=1;flowAnimation=1;" edge="1" parent="1" source="mucqxG4NULC66LCUimEi-24">
          <mxGeometry relative="1" as="geometry">
            <mxPoint x="375" y="890" as="targetPoint" />
          </mxGeometry>
        </mxCell>
        <mxCell id="mucqxG4NULC66LCUimEi-24" value="&lt;font size=&quot;1&quot; style=&quot;&quot;&gt;&lt;b style=&quot;font-size: 15px;&quot;&gt;application layer&lt;/b&gt;&lt;/font&gt;" style="text;html=1;align=center;verticalAlign=middle;resizable=0;points=[];autosize=1;strokeColor=#9673a6;fillColor=#e1d5e7;" vertex="1" parent="1">
          <mxGeometry x="305" y="940" width="140" height="30" as="geometry" />
        </mxCell>
        <mxCell id="mucqxG4NULC66LCUimEi-27" value="use" style="text;html=1;align=center;verticalAlign=middle;resizable=0;points=[];autosize=1;" vertex="1" parent="1">
          <mxGeometry x="380" y="910" width="40" height="30" as="geometry" />
        </mxCell>
        <mxCell id="mucqxG4NULC66LCUimEi-28" value="use" style="text;html=1;align=center;verticalAlign=middle;resizable=0;points=[];autosize=1;" vertex="1" parent="1">
          <mxGeometry x="380" y="990" width="40" height="30" as="geometry" />
        </mxCell>
        <mxCell id="mucqxG4NULC66LCUimEi-36" value="&lt;font style=&quot;font-size: 16px;&quot;&gt;&lt;b&gt;in&lt;br&gt;&lt;/b&gt;&lt;/font&gt;" style="text;html=1;align=center;verticalAlign=middle;resizable=0;points=[];autosize=1;strokeColor=#d79b00;fillColor=#ffe6cc;strokeWidth=2;" vertex="1" parent="1">
          <mxGeometry x="35" y="490" width="40" height="30" as="geometry" />
        </mxCell>
        <mxCell id="mucqxG4NULC66LCUimEi-37" value="&lt;font style=&quot;font-size: 16px;&quot;&gt;&lt;b&gt;out&lt;br&gt;&lt;/b&gt;&lt;/font&gt;" style="text;html=1;align=center;verticalAlign=middle;resizable=0;points=[];autosize=1;strokeColor=#d79b00;fillColor=#ffe6cc;strokeWidth=2;" vertex="1" parent="1">
          <mxGeometry x="375" y="490" width="50" height="30" as="geometry" />
        </mxCell>
        <mxCell id="mucqxG4NULC66LCUimEi-7" value="&lt;font style=&quot;font-size: 16px;&quot;&gt;&lt;b&gt;Infrastructure layer&lt;br&gt;&lt;/b&gt;&lt;/font&gt;" style="text;html=1;align=center;verticalAlign=middle;resizable=0;points=[];autosize=1;strokeColor=#d79b00;fillColor=#ffe6cc;strokeWidth=2;" vertex="1" parent="1">
          <mxGeometry x="150" y="520" width="170" height="30" as="geometry" />
        </mxCell>
      </root>
    </mxGraphModel>
  </diagram>
</mxfile>
